<?xml version="1.0" encoding="utf-8"?>
<svg version="1.2" baseProfile="tiny" xmlns="http://www.w3.org/2000/svg" xmlns:xlink="http://www.w3.org/1999/xlink" x="0px"
	 y="0px" width="64px" height="64px" viewBox="0 0 64 64" xml:space="preserve">
<g id="Ebene_1">
	<rect fill="#FFFFFF" x="0" y="0" width="64" height="64"/>
	<g>
		<path fill="#E76322" d="M49.555,0c-4.577,0-8.288,3.711-8.288,8.288s3.711,8.287,8.288,8.287s8.288-3.71,8.288-8.287
			S54.132,0,49.555,0z M53.711,12.394l-1.274,0.112L52.17,9.464l-3.043,0.265l-0.111-1.273l3.042-0.266l-0.267-3.043l1.274-0.112
			l0.266,3.043l3.043-0.267l0.111,1.275l-3.042,0.266L53.711,12.394z"/>
		<path fill="#7BB517" d="M22.435,52.986c-0.614,1.076-0.967,2.319-0.967,3.647c0,4.069,3.297,7.366,7.367,7.366
			c4.068,0,7.367-3.297,7.367-7.366c0-0.535-0.059-1.056-0.167-1.559c-1.286,0.264-2.615,0.407-3.978,0.407
			C28.563,55.482,25.284,54.574,22.435,52.986z"/>
		<path fill="#0F0B01" d="M42.036,31.547c-1.24,0-2.278,0.558-3.114,1.673c-0.836,1.114-1.391,2.692-1.665,4.735h9.02
			c-0.057-1.985-0.469-3.549-1.233-4.692C44.279,32.119,43.276,31.547,42.036,31.547z"/>
		<path fill="#0F0B01" d="M37.19,39.699c-0.042,0.891-0.063,1.553-0.063,1.984c0,3.322,0.671,5.919,2.018,7.788
			c1.016,1.412,2.331,2.292,3.971,2.638c4.253-2.869,7.33-7.348,8.361-12.563H37.212L37.19,39.699z"/>
		<path fill="#0F0B01" d="M32.057,15.886c-10.935,0-19.798,8.863-19.798,19.798c0,0.435,0.015,0.865,0.042,1.292
			c2.88,0.255,5.139,2.669,5.139,5.614c0,1.637-0.701,3.104-1.814,4.136c1.741,2.584,4.075,4.737,6.808,6.261
			c2.849,1.588,6.129,2.496,9.623,2.496c1.363,0,2.692-0.144,3.978-0.407c1.128-0.231,2.223-0.555,3.273-0.969
			c-1.736-0.346-3.279-1.001-4.634-1.962c-0.483-0.343-0.944-0.723-1.379-1.144c-0.219-0.212-0.425-0.433-0.624-0.657
			c-1.92-2.167-2.883-4.883-2.883-8.152c0-3.524,1.155-6.407,3.465-8.65c2.31-2.243,5.292-3.364,8.946-3.364
			c3.28,0,5.928,0.813,7.943,2.439c0.634,0.512,1.189,1.092,1.665,1.739C51.124,24.041,42.545,15.886,32.057,15.886z"/>
		<path fill="#4D8CC6" d="M6.158,42.59c0-3.116,2.525-5.64,5.641-5.64s5.642,2.523,5.642,5.64c0,3.115-2.526,5.641-5.642,5.641
			S6.158,45.705,6.158,42.59L6.158,42.59z"/>
		<polygon fill="#575656" points="56.487,9.086 53.444,9.352 53.711,12.394 52.437,12.506 52.17,9.464 49.127,9.729 49.016,8.455
			52.058,8.189 51.792,5.146 53.066,5.035 53.332,8.078 56.375,7.811 56.487,9.086"/>
	</g>
</g>
</svg>
